PathFileType	4	(X/Y/Z)	Kaydara																																																																																																																									
DataRate	CameraRate	NumFrames	NumMarkers	Units	OrigDataRate	OrigDataStartFrame	OrigNumFrames																																																																																																																					
30	30	9	41	mm	30	26	192																																																																																																																					
Frame#	Time	PAIB_LFHD			PAIB_RFHD			PAIB_LBHD			PAIB_RBHD			PAIB_LFTShould			PAIB_RFTShould			PAIB_LRRShould			PAIB_RRRShould			PAIB_T10			PAIB_STRN			PAIB_TRUN			PAIB_LSHO			PAIB_LUPA			PAIB_LELB			PAIB_LFRM			PAIB_LWRA			PAIB_LWRB			PAIB_LFIN			PAIB_RSHO			PAIB_RUPA			PAIB_RELB			PAIB_RFRM			PAIB_RWRA			PAIB_RWRB			PAIB_RFIN			PAIB_LFWT			PAIB_RFWT			PAIB_LBWT			PAIB_RBWT			PAIB_LTHI			PAIB_LKNE			PAIB_LSHN			PAIB_LANK			PAIB_LHEE			PAIB_LTOE			PAIB_RTHI			PAIB_RKNE			PAIB_RSHN			PAIB_RANK			PAIB_RHEE			PAIB_RTOE		
		X1	Y1	Z1	X2	Y2	Z2	X3	Y3	Z3	X4	Y4	Z4	X5	Y5	Z5	X6	Y6	Z6	X7	Y7	Z7	X8	Y8	Z8	X9	Y9	Z9	X10	Y10	Z10	X11	Y11	Z11	X12	Y12	Z12	X13	Y13	Z13	X14	Y14	Z14	X15	Y15	Z15	X16	Y16	Z16	X17	Y17	Z17	X18	Y18	Z18	X19	Y19	Z19	X20	Y20	Z20	X21	Y21	Z21	X22	Y22	Z22	X23	Y23	Z23	X24	Y24	Z24	X25	Y25	Z25	X26	Y26	Z26	X27	Y27	Z27	X28	Y28	Z28	X29	Y29	Z29	X30	Y30	Z30	X31	Y31	Z31	X32	Y32	Z32	X33	Y33	Z33	X34	Y34	Z34	X35	Y35	Z35	X36	Y36	Z36	X37	Y37	Z37	X38	Y38	Z38	X39	Y39	Z39	X40	Y40	Z40	X41	Y41	Z41
																																																																																																																												
25	0.83	233.49995	1698.49716	-1966.9278	47.59843	1700.76233	-1976.79733	248.1646	1664.83582	-2093.03543	45.36235	1678.13934	-2092.00409	206.57663	1436.21613	-1961.02661	83.93062	1431.50177	-1967.67288	219.80061	1484.58054	-2112.40112	65.72281	1482.42462	-2107.75116	143.10246	1316.09711	-2173.11691	152.46367	1373.04535	-1916.57333	152.59946	1275.29747	-1882.3941	339.37931	1435.93842	-2037.35794	385.28782	1208.68607	-2021.57593	402.04758	1118.97789	-2049.10156	417.15218	1010.31876	-1994.2038	354.87518	908.66333	-1897.62115	394.8901	881.20499	-1958.99338	405.15678	853.65952	-1892.66891	-42.2682	1427.24274	-2025.65582	-103.24149	1250.17555	-2053.3284	-122.23762	1130.41031	-2052.22321	-133.25315	997.32628	-2000.83557	-66.92313	909.88113	-1893.33145	-136.43648	888.18855	-1935.5954	-123.52835	861.14883	-1866.43936	257.46662	966.85379	-1907.68692	20.81218	969.39438	-1914.69742	201.5225	1027.01965	-2121.00174	57.77844	1030.46059	-2122.11624	251.17163	750.08995	-2130.64041	285.23045	511.65321	-2051.37894	261.93884	312.55341	-2053.99368	260.01694	129.1734	-2145.25757	202.00741	118.03654	-2188.93021	260.46673	75.04841	-1971.19339	-0.262	731.41937	-2133.0954	-2.01386	487.82127	-2068.17963	56.39419	303.84714	-2058.35938	33.95565	113.67494	-2148.13629	97.80943	113.25953	-2197.29767	42.85899	77.12107	-1977.13791
26	0.863	233.72152	1698.47473	-1966.9313	47.7276	1700.84747	-1976.79611	248.29138	1664.79034	-2092.9837	45.53164	1678.21152	-2091.92642	206.49178	1436.08429	-1961.03912	83.95562	1431.53992	-1967.68982	219.88081	1484.63516	-2112.49786	65.82341	1482.4501	-2107.7359	143.10625	1316.12076	-2173.16849	152.53897	1373.09586	-1916.63986	152.52177	1275.29839	-1882.39624	339.66667	1436.05087	-2037.74185	385.18887	1208.66669	-2021.46667	401.96671	1118.91022	-2048.92044	417.05441	1010.36255	-1993.98071	354.81556	908.83133	-1897.17636	394.69852	881.19263	-1958.56384	405.02686	853.72742	-1892.19574	-42.22207	1427.32361	-2025.67947	-103.23007	1250.271	-2053.35831	-122.24299	1130.48004	-2052.20917	-133.26209	997.43576	-2000.79666	-66.88744	910.09834	-1893.22235	-136.39291	888.3036	-1935.50293	-123.4453	861.34674	-1866.27151	257.27848	966.82701	-1907.73788	20.74261	969.37164	-1914.67224	201.48188	1027.00935	-2121.05286	57.73001	1030.44304	-2122.14111	251.20991	750.13618	-2130.60989	285.22696	511.65829	-2051.3768	261.9034	312.61602	-2053.98239	260.03042	129.27345	-2145.18723	202.01855	118.06973	-2188.95325	260.45851	75.04012	-1971.17279	-0.27414	731.40457	-2133.05206	-2.03082	487.82036	-2068.08624	56.41432	303.86002	-2058.33267	33.99163	113.58974	-2148.01834	97.79792	113.37839	-2197.23312	42.91882	77.07458	-1977.08328
27	0.897	233.78277	1698.49274	-1966.89789	47.77366	1700.84976	-1976.76651	248.38261	1664.86511	-2092.97745	45.63085	1678.25562	-2091.90491	206.59697	1436.15829	-1961.07712	83.93615	1431.61224	-1967.7388	219.95644	1484.64905	-2112.46704	65.88466	1482.50992	-2107.8038	143.15009	1316.16165	-2173.16803	152.56296	1373.12851	-1916.65665	152.51191	1275.36583	-1882.39273	339.43359	1435.90622	-2037.52396	385.20294	1208.65952	-2021.37726	401.89629	1118.87108	-2048.74222	416.86607	1010.42641	-1993.81561	354.47643	908.85391	-1896.91544	394.46316	881.22169	-1958.28857	404.67136	853.73123	-1891.84525	-42.19805	1427.42859	-2025.73395	-103.25831	1250.41512	-2053.44635	-122.30471	1130.58487	-2052.25174	-133.29815	997.55333	-2000.80978	-66.91174	910.2626	-1893.17169	-136.43588	888.49014	-1935.47104	-123.51128	861.47316	-1866.26175	257.37013	966.90514	-1907.72675	20.76156	969.50027	-1914.68582	201.46341	1027.02065	-2121.05103	57.72493	1030.4496	-2122.13959	251.19814	750.15106	-2130.70084	285.23245	511.70589	-2051.32843	261.91273	312.61747	-2053.9592	260.03799	129.3132	-2145.17838	202.02744	118.0932	-2188.93661	260.4686	75.03231	-1971.19522	-0.30484	731.43219	-2133.05832	-2.07917	487.85656	-2068.07495	56.38004	303.85992	-2058.32977	33.92504	113.63208	-2148.05832	97.78745	113.34584	-2197.19467	42.94963	77.05488	-1976.99081
28	0.93	233.71464	1698.50082	-1966.84418	47.75315	1700.85983	-1976.82312	248.42356	1664.8526	-2092.91412	45.65982	1678.25577	-2092.0285	206.47085	1436.0556	-1960.97076	83.83988	1431.56708	-1967.88086	220.02422	1484.59717	-2112.37915	65.97174	1482.53174	-2107.78519	143.23735	1316.17889	-2173.17307	152.53576	1373.0896	-1916.6037	152.47404	1275.308	-1882.39594	338.90755	1436.40961	-2039.95499	385.06535	1208.43407	-2021.2886	401.8277	1118.78357	-2048.59207	416.66534	1010.28015	-1993.57971	354.11083	908.86368	-1896.75507	394.13525	881.14677	-1958.08075	404.22562	853.6953	-1891.66809	-42.1883	1427.48886	-2025.77164	-103.28006	1250.45181	-2053.49976	-122.32314	1130.58823	-2052.22214	-133.38674	997.6223	-2000.82016	-67.02827	910.28389	-1893.21442	-136.55645	888.55309	-1935.45959	-123.64157	861.59904	-1866.29608	257.36095	966.88187	-1907.70691	20.74419	969.40475	-1914.84955	201.56607	1027.08763	-2121.0733	57.77575	1030.46585	-2122.12982	251.17559	750.10948	-2130.64911	285.25812	511.68953	-2051.25092	261.88686	312.58915	-2053.89816	259.9892	129.24898	-2145.25421	202.00043	118.11354	-2188.90457	260.45309	75.03618	-1971.17889	-0.27418	731.45699	-2133.11127	-2.12714	487.84473	-2068.16772	56.35793	303.89103	-2058.3667	33.9379	113.62047	-2148.06763	97.70032	113.41683	-2197.27097	42.93275	77.0346	-1976.9931
29	0.963	233.62288	1698.60352	-1966.7926	47.80023	1700.86838	-1977.37335	248.47698	1664.8349	-2092.81982	45.68711	1678.15414	-2092.15286	206.499	1436.08749	-1960.83633	83.97434	1431.60416	-1967.65259	220.06329	1484.59091	-2112.28012	66.0081	1482.50671	-2107.76367	143.29753	1316.17752	-2173.14041	152.50817	1373.13751	-1916.62811	152.41669	1275.26619	-1882.34055	339.46766	1435.82153	-2036.91544	385.11253	1208.52554	-2021.09909	401.74183	1118.70453	-2048.46222	416.46431	1010.20622	-1993.47305	353.62823	908.77487	-1896.77277	393.75484	881.06346	-1957.99744	403.74172	853.57567	-1891.55518	-42.18489	1427.43362	-2025.78171	-103.27033	1250.4055	-2053.50189	-122.05681	1130.3688	-2051.92856	-133.4899	997.61452	-2000.86319	-67.13503	910.24284	-1893.22388	-136.73024	888.54088	-1935.54016	-123.83167	861.58783	-1866.3533	257.33192	966.86188	-1907.76581	20.78875	969.43459	-1914.90005	201.69798	1027.06932	-2121.14227	57.90057	1030.45258	-2122.24548	251.33455	750.10483	-2130.59326	285.299	511.69552	-2051.21597	261.9401	312.58492	-2053.92273	260.01112	129.24089	-2145.26733	202.03358	118.11105	-2188.89664	260.45971	75.01147	-1971.17889	-0.18955	731.41121	-2133.2016	-2.09392	487.82272	-2068.17993	56.3491	303.91069	-2058.3252	33.91427	113.54742	-2148.06107	97.76033	113.33884	-2197.25555	42.95926	77.01385	-1976.95709
30	0.997	233.49268	1698.65631	-1966.74469	47.60625	1700.87875	-1977.28165	248.47733	1664.88235	-2092.79846	45.67995	1678.09433	-2092.25815	206.57166	1436.16226	-1960.75195	83.90149	1431.59195	-1967.73178	220.11467	1484.63852	-2112.09991	66.06518	1482.47971	-2107.71698	143.45855	1316.21719	-2173.0658	152.47121	1373.10593	-1916.53656	152.43211	1275.30884	-1882.36008	339.37881	1435.78003	-2036.20621	385.13363	1208.5569	-2020.89218	401.61156	1118.71574	-2048.34549	416.23234	1010.12558	-1993.38913	353.22224	908.63068	-1896.84998	393.37883	880.99052	-1958.04398	403.32905	853.45261	-1891.66	-42.13699	1427.37762	-2025.83786	-103.23288	1250.37758	-2053.58246	-122.31637	1130.50575	-2052.31628	-133.53959	997.56241	-2001.00723	-67.3079	910.18257	-1893.31558	-136.91517	888.48724	-1935.71915	-124.10206	861.51024	-1866.49384	257.40088	966.92444	-1907.7095	20.83366	969.54376	-1914.95972	201.81314	1027.03476	-2121.15021	58.00169	1030.43678	-2122.35443	251.4735	750.04097	-2130.53375	285.37687	511.6935	-2051.23566	261.97706	312.61555	-2053.91174	260.06832	129.27275	-2145.22476	202.09074	118.12379	-2188.95447	260.4644	75.0293	-1971.18317	-0.07334	731.39351	-2133.23975	-2.01755	487.83489	-2068.17749	56.38861	303.81737	-2058.33557	33.94732	113.61525	-2148.04749	97.78608	113.38635	-2197.2197	42.99253	77.04067	-1976.92963
31	1.03	233.31532	1698.72284	-1966.66153	47.55749	1700.83786	-1977.43378	248.44561	1664.81979	-2092.60452	45.63975	1678.03635	-2092.36603	206.49204	1436.15814	-1960.62042	83.88391	1431.59393	-1967.68524	220.21397	1484.72626	-2111.97556	66.13486	1482.50046	-2107.72125	143.66182	1316.26923	-2173.0307	152.4262	1373.10776	-1916.50345	152.44527	1275.24948	-1882.31003	339.84818	1436.15265	-2036.90643	385.0201	1208.6235	-2020.82779	401.54495	1118.76427	-2048.2222	415.99926	1010.09933	-1993.32138	352.87952	908.59596	-1896.95221	393.0722	880.97572	-1958.17307	402.91405	853.37143	-1891.72729	-42.07597	1427.30286	-2025.86502	-103.13349	1250.28221	-2053.70651	-122.18268	1130.37918	-2052.35397	-133.53426	997.49252	-2001.19049	-67.39022	910.11887	-1893.45306	-137.01761	888.49068	-1936.02814	-124.22997	861.41891	-1866.74774	257.46868	966.87737	-1907.79099	21.01718	969.60564	-1914.90845	201.91471	1027.07077	-2121.12701	58.16071	1030.50339	-2122.38235	251.54408	750.07423	-2130.59982	285.3812	511.6724	-2051.22192	261.96529	312.60021	-2053.86688	260.01398	129.23953	-2145.21698	202.03854	118.14085	-2188.90961	260.4491	75.02153	-1971.17218	0.08695	731.41975	-2133.2608	-1.96896	487.88994	-2068.22357	56.45995	303.8616	-2058.32275	33.94015	113.6424	-2148.0864	97.86807	113.29	-2197.13501	43.00545	77.01183	-1976.89865
32	1.063	233.1736	1698.84872	-1966.56723	47.3822	1700.73547	-1977.27356	248.39733	1664.94232	-2092.54745	45.59726	1677.95868	-2092.34299	206.57648	1436.21552	-1960.57693	83.97681	1431.54724	-1967.60208	220.3301	1484.81781	-2111.83426	66.25138	1482.46185	-2107.66205	143.90327	1316.29074	-2172.96707	152.50717	1373.08594	-1916.4325	152.40484	1275.21347	-1882.24197	339.81136	1436.14243	-2036.49048	385.02644	1208.59558	-2020.73196	401.61343	1118.84827	-2048.15796	415.92667	1010.02876	-1993.25714	352.61814	908.61824	-1897.03812	392.89673	880.99022	-1958.2576	402.59575	853.32802	-1891.89865	-42.02868	1427.25327	-2025.91629	-102.99797	1250.23811	-2053.84247	-121.96983	1130.23666	-2052.42966	-133.44126	997.45789	-2001.46683	-67.43384	909.91631	-1893.76434	-136.96353	888.35114	-1936.31332	-124.25803	861.28571	-1867.03293	257.52422	966.88049	-1907.86667	21.0213	969.55185	-1914.99435	202.01458	1027.0739	-2121.18225	58.25564	1030.5397	-2122.42233	251.60198	750.08835	-2130.65979	285.4855	511.70441	-2051.31149	262.02951	312.61473	-2053.94562	260.03054	129.25636	-2145.21103	202.04842	118.0913	-2188.92487	260.43901	75.01069	-1971.16562	0.21205	731.44897	-2133.34686	-1.84396	487.88834	-2068.18192	56.55698	303.83814	-2058.30505	34.0092	113.62636	-2148.08472	97.94969	113.22775	-2197.09885	43.02329	76.98806	-1976.87653
33	1.097	233.11092	1698.91098	-1966.43021	47.22461	1700.64453	-1977.18719	248.42985	1665.08316	-2092.39944	45.6123	1677.90665	-2092.36969	206.54812	1436.19827	-1960.4425	84.08734	1431.54724	-1967.53754	220.44666	1484.83459	-2111.76285	66.37851	1482.49664	-2107.66083	144.07996	1316.32507	-2172.89063	152.53632	1373.0629	-1916.29837	152.50668	1275.25002	-1882.20917	340.13611	1436.2973	-2036.32462	385.09338	1208.53523	-2020.74951	401.76601	1118.86391	-2048.09021	416.02768	1010.14198	-1993.28476	352.48112	908.50357	-1897.20612	392.87025	880.96733	-1958.31436	402.41821	853.25356	-1891.95709	-41.89881	1427.20932	-2025.99472	-102.87202	1250.22896	-2054.04694	-121.91772	1130.30197	-2052.75681	-133.2728	997.40013	-2001.75674	-67.32141	909.82666	-1894.04129	-136.79666	888.22823	-1936.63177	-124.17102	861.14037	-1867.39243	257.61238	966.85829	-1907.92175	21.08286	969.52972	-1915.11292	202.14613	1027.11952	-2121.27304	58.37351	1030.50789	-2122.49069	251.75194	750.12512	-2130.7782	285.52994	511.69731	-2051.35773	262.09524	312.61444	-2053.98911	260.0753	129.22169	-2145.24277	202.08559	118.11917	-2188.95935	260.47197	75.02497	-1971.19659	0.29772	731.41769	-2133.33328	-1.77205	487.89364	-2068.17429	56.51823	303.89259	-2058.29834	34.07582	113.63013	-2148.06961	97.95658	113.30287	-2197.13776	43.03982	76.98121	-1976.86157
